<mxfile host="app.diagrams.net" modified="2023-11-21T19:50:17.296Z" agent="Mozilla/5.0 (Windows NT 10.0; Win64; x64) AppleWebKit/537.36 (KHTML, like Gecko) Chrome/116.0.5845.664 YaBrowser/23.9.5.664 Yowser/2.5 Safari/537.36" etag="w2Vt1_h8c8gWbkwUQ4vh" version="22.1.3" type="device">
  <diagram name="Страница — 1" id="0Hg9JdnEb_OBUSHEmZGM">
    <mxGraphModel dx="1066" dy="664" grid="0" gridSize="10" guides="1" tooltips="1" connect="1" arrows="1" fold="1" page="1" pageScale="1" pageWidth="827" pageHeight="1169" math="0" shadow="0">
      <root>
        <mxCell id="0" />
        <mxCell id="1" parent="0" />
        <mxCell id="vSdlGgXXjVl9V2SeEeya-1" value="" style="rounded=0;whiteSpace=wrap;html=1;" parent="1" vertex="1">
          <mxGeometry x="80" y="150" width="590" height="350" as="geometry" />
        </mxCell>
        <mxCell id="n4AyjgU9SirsRX-FSnZF-4" value="" style="rounded=0;whiteSpace=wrap;html=1;" vertex="1" parent="1">
          <mxGeometry x="120" y="250" width="520" height="225" as="geometry" />
        </mxCell>
        <mxCell id="n4AyjgU9SirsRX-FSnZF-7" value="" style="rounded=0;whiteSpace=wrap;html=1;" vertex="1" parent="1">
          <mxGeometry x="160" y="270" width="400" height="190" as="geometry" />
        </mxCell>
        <mxCell id="vSdlGgXXjVl9V2SeEeya-2" value="Minikube" style="text;html=1;strokeColor=none;fillColor=none;align=center;verticalAlign=middle;whiteSpace=wrap;rounded=0;" parent="1" vertex="1">
          <mxGeometry x="600" y="150" width="60" height="30" as="geometry" />
        </mxCell>
        <mxCell id="vSdlGgXXjVl9V2SeEeya-3" value="" style="rounded=0;whiteSpace=wrap;html=1;" parent="1" vertex="1">
          <mxGeometry x="200" y="300" width="160" height="140" as="geometry" />
        </mxCell>
        <mxCell id="vSdlGgXXjVl9V2SeEeya-4" value="Pod" style="text;html=1;strokeColor=none;fillColor=none;align=center;verticalAlign=middle;whiteSpace=wrap;rounded=0;" parent="1" vertex="1">
          <mxGeometry x="310" y="300" width="60" height="30" as="geometry" />
        </mxCell>
        <mxCell id="vSdlGgXXjVl9V2SeEeya-5" value="" style="rounded=0;whiteSpace=wrap;html=1;" parent="1" vertex="1">
          <mxGeometry x="230" y="325" width="100" height="90" as="geometry" />
        </mxCell>
        <mxCell id="vSdlGgXXjVl9V2SeEeya-6" value="Container" style="text;html=1;strokeColor=none;fillColor=none;align=center;verticalAlign=middle;whiteSpace=wrap;rounded=0;" parent="1" vertex="1">
          <mxGeometry x="250" y="355" width="60" height="30" as="geometry" />
        </mxCell>
        <mxCell id="vSdlGgXXjVl9V2SeEeya-7" value="" style="rounded=0;whiteSpace=wrap;html=1;" parent="1" vertex="1">
          <mxGeometry x="280" y="175" width="90" height="40" as="geometry" />
        </mxCell>
        <mxCell id="vSdlGgXXjVl9V2SeEeya-9" value="Service" style="text;html=1;strokeColor=none;fillColor=none;align=center;verticalAlign=middle;whiteSpace=wrap;rounded=0;" parent="1" vertex="1">
          <mxGeometry x="295" y="180" width="60" height="30" as="geometry" />
        </mxCell>
        <mxCell id="vSdlGgXXjVl9V2SeEeya-10" value="" style="endArrow=none;html=1;rounded=0;endFill=0;" parent="1" edge="1">
          <mxGeometry width="50" height="50" relative="1" as="geometry">
            <mxPoint x="325" y="110" as="sourcePoint" />
            <mxPoint x="325" y="170" as="targetPoint" />
          </mxGeometry>
        </mxCell>
        <mxCell id="vSdlGgXXjVl9V2SeEeya-11" value=":3000" style="text;html=1;strokeColor=none;fillColor=none;align=center;verticalAlign=middle;whiteSpace=wrap;rounded=0;" parent="1" vertex="1">
          <mxGeometry x="320" y="150" width="60" height="30" as="geometry" />
        </mxCell>
        <mxCell id="n4AyjgU9SirsRX-FSnZF-2" value="localhost" style="rounded=0;whiteSpace=wrap;html=1;" vertex="1" parent="1">
          <mxGeometry x="280" y="60" width="90" height="40" as="geometry" />
        </mxCell>
        <mxCell id="n4AyjgU9SirsRX-FSnZF-3" value=":3000" style="text;html=1;strokeColor=none;fillColor=none;align=center;verticalAlign=middle;whiteSpace=wrap;rounded=0;" vertex="1" parent="1">
          <mxGeometry x="320" y="30" width="60" height="30" as="geometry" />
        </mxCell>
        <mxCell id="n4AyjgU9SirsRX-FSnZF-6" value="Deployment" style="text;html=1;strokeColor=none;fillColor=none;align=center;verticalAlign=middle;whiteSpace=wrap;rounded=0;" vertex="1" parent="1">
          <mxGeometry x="570" y="250" width="60" height="30" as="geometry" />
        </mxCell>
        <mxCell id="n4AyjgU9SirsRX-FSnZF-8" value="ReplicaSet" style="text;html=1;strokeColor=none;fillColor=none;align=center;verticalAlign=middle;whiteSpace=wrap;rounded=0;" vertex="1" parent="1">
          <mxGeometry x="490" y="270" width="60" height="30" as="geometry" />
        </mxCell>
        <mxCell id="n4AyjgU9SirsRX-FSnZF-9" value="" style="rounded=0;whiteSpace=wrap;html=1;" vertex="1" parent="1">
          <mxGeometry x="380" y="300" width="160" height="140" as="geometry" />
        </mxCell>
        <mxCell id="n4AyjgU9SirsRX-FSnZF-10" value="" style="rounded=0;whiteSpace=wrap;html=1;" vertex="1" parent="1">
          <mxGeometry x="410" y="325" width="100" height="90" as="geometry" />
        </mxCell>
        <mxCell id="n4AyjgU9SirsRX-FSnZF-11" value="Container" style="text;html=1;strokeColor=none;fillColor=none;align=center;verticalAlign=middle;whiteSpace=wrap;rounded=0;" vertex="1" parent="1">
          <mxGeometry x="430" y="355" width="60" height="30" as="geometry" />
        </mxCell>
        <mxCell id="n4AyjgU9SirsRX-FSnZF-12" value="Pod" style="text;html=1;strokeColor=none;fillColor=none;align=center;verticalAlign=middle;whiteSpace=wrap;rounded=0;" vertex="1" parent="1">
          <mxGeometry x="480" y="300" width="60" height="30" as="geometry" />
        </mxCell>
        <mxCell id="n4AyjgU9SirsRX-FSnZF-14" value="" style="endArrow=none;html=1;rounded=0;entryX=0.5;entryY=1;entryDx=0;entryDy=0;exitX=0.5;exitY=0;exitDx=0;exitDy=0;" edge="1" parent="1" source="vSdlGgXXjVl9V2SeEeya-3" target="vSdlGgXXjVl9V2SeEeya-7">
          <mxGeometry width="50" height="50" relative="1" as="geometry">
            <mxPoint x="360" y="360" as="sourcePoint" />
            <mxPoint x="410" y="310" as="targetPoint" />
          </mxGeometry>
        </mxCell>
        <mxCell id="n4AyjgU9SirsRX-FSnZF-17" value="" style="endArrow=none;html=1;rounded=0;entryX=0.5;entryY=0;entryDx=0;entryDy=0;exitX=0.5;exitY=1;exitDx=0;exitDy=0;" edge="1" parent="1" source="vSdlGgXXjVl9V2SeEeya-7" target="n4AyjgU9SirsRX-FSnZF-9">
          <mxGeometry width="50" height="50" relative="1" as="geometry">
            <mxPoint x="325" y="220" as="sourcePoint" />
            <mxPoint x="410" y="310" as="targetPoint" />
          </mxGeometry>
        </mxCell>
      </root>
    </mxGraphModel>
  </diagram>
</mxfile>
